<svg width="72" height="84" viewBox="0 0 72 84" fill="none" xmlns="http://www.w3.org/2000/svg">
<path d="M26.8215 2.66762C33.0747 -0.879581 43.1937 -0.890616 49.4232 2.64311C53.0716 4.71268 54.5767 7.53904 53.9418 10.2384C58.7003 9.87816 63.6829 10.7321 67.3312 12.8016C70.4441 14.5675 71.9965 16.8845 71.9905 19.2034L72 19.1981V64.465C72 65.5858 71.2149 66.6612 69.8176 67.4537L40.9664 83.8179C40.5383 84.0607 39.8442 84.0607 39.4161 83.8179L36.4592 82.1405C36.4173 82.1168 36.3779 82.0912 36.3398 82.0658L21.7897 73.8123C21.7677 73.8016 21.7459 73.7908 21.725 73.779L18.5518 71.9791C18.5298 71.9666 18.5092 71.9518 18.4883 71.9388L3.87229 63.6479C3.85307 63.6384 3.83358 63.6297 3.81527 63.6193L0.642115 61.8188C0.230969 61.5856 5.71507e-07 61.2692 0 60.9393V18.3974C3.50789e-05 18.0675 0.230953 17.7511 0.642115 17.5179L26.8215 2.66762ZM56.0422 13.8825C53.6449 13.8832 51.248 14.4027 49.4191 15.4402L49.3763 15.4641L23.1993 30.3149C22.7881 30.5482 22.5566 30.8646 22.5566 31.1945V68.9816L35.8188 76.5045V38.7121C35.8188 38.3822 36.0503 38.0658 36.4615 37.8326L62.6368 22.9841L62.6522 22.9753L62.6795 22.9601L62.6819 22.9584L62.6849 22.9566L62.6873 22.9555C62.913 22.8271 63.125 22.6939 63.3228 22.5563C66.3256 20.4678 66.1114 17.387 62.6795 15.4402C60.8469 14.4006 58.4442 13.8812 56.0422 13.8825ZM41.6709 4.11383C38.5679 3.40007 34.9273 3.66778 32.2275 4.9169L32.2216 4.91982C32.1317 4.96146 32.0426 5.00381 31.9549 5.04763C31.8052 5.12239 31.6589 5.20056 31.5159 5.28166L31.4939 5.29392L31.4731 5.30617L10.1295 17.4134L5.29373 20.1564C4.88267 20.3897 4.65162 20.7061 4.65162 21.0359V58.8243L17.9091 66.3448V28.5547C17.9092 28.2249 18.1407 27.9084 18.5518 27.6752L44.7294 12.8256L44.7722 12.8016C48.4326 10.7252 48.4327 7.3582 44.7722 5.28166C44.7186 5.25124 44.664 5.22131 44.6094 5.19178L44.5988 5.18595C44.1907 4.96592 43.7562 4.77091 43.3015 4.60057C42.8467 4.43024 42.3714 4.28468 41.8818 4.16402C41.8118 4.14679 41.7414 4.13006 41.6709 4.11383Z" fill="black"/>
</svg>
